<?xml version="1.0" encoding="utf-8"?>
<!-- Generator: Adobe Illustrator 16.0.0, SVG Export Plug-In . SVG Version: 6.00 Build 0)  -->
<!DOCTYPE svg PUBLIC "-//W3C//DTD SVG 1.1//EN" "http://www.w3.org/Graphics/SVG/1.1/DTD/svg11.dtd">
<svg version="1.1" id="Layer_1" xmlns="http://www.w3.org/2000/svg" xmlns:xlink="http://www.w3.org/1999/xlink" x="0px" y="0px"
	 width="255.667px" height="254.909px" viewBox="0 0 255.667 254.909" enable-background="new 0 0 255.667 254.909"
	 xml:space="preserve">
<g opacity="0.7">
	<path fill="#FFFFFF" d="M195.32,128.645c-2.81,0-5.401-1.836-6.233-4.669c-8.144-27.713-30.615-49.16-58.646-55.971
		c-0.232-0.057-0.47-0.11-0.706-0.163l-0.36-0.082c-3.5-0.799-5.688-4.285-4.89-7.784c0.801-3.5,4.284-5.688,7.784-4.89l0.324,0.073
		c0.305,0.069,0.609,0.138,0.914,0.212c32.53,7.904,58.605,32.787,68.053,64.939c1.012,3.444-0.96,7.057-4.404,8.069
		C196.543,128.559,195.926,128.645,195.32,128.645z"/>
</g>
<g opacity="0.7">
	<path fill="#FFFFFF" d="M220.898,120.486c-2.796,0-5.379-1.819-6.223-4.634c-10.977-36.596-40.825-64.924-77.896-73.932
		c-0.391-0.095-0.779-0.182-1.169-0.27l-0.514-0.116c-3.5-0.798-5.69-4.283-4.892-7.783c0.799-3.5,4.281-5.691,7.782-4.892
		l0.481,0.109c0.46,0.104,0.92,0.208,1.38,0.319c41.538,10.093,74.981,41.831,87.278,82.829c1.032,3.439-0.92,7.063-4.358,8.094
		C222.146,120.396,221.517,120.486,220.898,120.486z"/>
</g>
<g opacity="0.7">
	<path fill="#FFFFFF" d="M246.286,112.387c-2.788,0-5.365-1.808-6.218-4.613c-13.79-45.403-50.958-80.557-96.999-91.744
		c-0.596-0.145-1.19-0.278-1.785-0.412l-0.494-0.111c-3.502-0.79-5.7-4.268-4.911-7.77c0.789-3.502,4.271-5.699,7.771-4.912
		l0.479,0.107c0.671,0.15,1.342,0.301,2.013,0.464c25.387,6.168,48.699,18.958,67.414,36.986
		c18.155,17.488,31.625,39.485,38.953,63.611c1.043,3.435-0.896,7.065-4.331,8.108C247.547,112.296,246.911,112.387,246.286,112.387
		z"/>
</g>
<g>
	<path fill-rule="evenodd" clip-rule="evenodd" fill="#E1D8D6" d="M177.321,171.319c-0.867,9.078-2.252,18.049-5.691,26.572
		c-1.807,4.486-3.506,9.035-6.264,13.07c-3.246,1.519-6.471,3.092-9.75,4.541c-7.934,3.507-16.313,5.729-24.876,6.437
		c-7.948,0.653-15.982,0.407-23.945-1.146c-6.179-1.203-12.135-2.943-17.936-5.311c-2.065-0.84-4.12-1.697-6.114-2.52
		c-6.758,5.268-11.294,4.063-14.713,1.787c-1.939-1.291-3.356-3.248-3.952-5.457c-0.774-2.875-0.338-5.797,1.041-8.621
		c-1.348-1.306-2.73-2.546-3.997-3.896c-2.749-2.932-5.76-5.688-8.084-8.933c-4.447-6.212-8.375-12.749-11.143-19.956
		c-3.283-8.549-5.667-17.258-5.884-26.465c-0.045-1.947-0.439-3.578-2.51-4.364c-0.5-0.189-0.862-0.754-1.275-1.159
		c-2.511-2.461-2.391-5.559,0.061-7.771c0.904-0.817,2.116-1.282,3.074-2.051c0.56-0.448,1.271-1.181,1.266-1.78
		c-0.024-2.761,0.832-5.317,1.356-7.966c1.05-5.313,2.91-10.299,4.976-15.246c1.162-2.781,2.331-5.56,3.498-8.341
		c6.326-4.189,13.334-6.843,20.539-9.003c10.517-3.152,21.345-3.574,32.156-2.708c8.297,0.665,16.364,2.742,24.131,5.948
		c12.327,5.091,23.02,12.5,31.852,22.436c9.992,11.235,16.811,24.197,20,38.967c1.361,6.299,2.23,12.658,2.086,19.125
		C177.19,168.778,177.286,170.05,177.321,171.319z M163.311,167.434c1.197-9.654-7.877-17.891-17.408-17.609
		c-9.152,0.271-16.553,7.401-16.687,17.031c-0.138,9.912,7.239,17.472,17.495,17.632
		C154.995,184.62,164.362,176.624,163.311,167.434z M103.484,169.629c0.001-4.7-3.997-8.807-8.508-8.738
		c-4.596,0.07-9.279,4.695-8.815,9.162c0.5,4.792,3.946,8.127,9.042,8.283C99.481,178.471,104.053,174.48,103.484,169.629z
		 M73.943,213.757c4.229,0.042,7.9-3.227,7.955-7.162c0.058-4.038-3.837-7.979-7.663-8.101c-4.078-0.126-7.613,3.67-7.625,7.89
		C66.601,210.391,69.906,213.712,73.943,213.757z M67.314,117.355c0.783-3.519-2.677-7.498-6.751-7.899
		c-3.86-0.382-7.868,3.646-7.861,7.624c0.005,3.707,3.576,7.78,7.2,7.53C63.236,124.381,67.671,121.991,67.314,117.355z
		 M105.465,144.192c3.406,0.029,6.329-2.807,6.359-6.164c0.029-3.4-2.809-6.327-6.166-6.355c-3.403-0.031-6.326,2.803-6.354,6.164
		C99.276,141.244,102.106,144.163,105.465,144.192z M97.088,98.411c0.849-1.248,1.844-2.176,2.132-3.287
		c0.295-1.137,0.194-2.579-0.265-3.662c-0.742-1.75-3.552-2.579-5.239-1.86c-2.07,0.882-3.95,3.179-3.373,4.547
		c0.552,1.306,1.544,2.471,2.514,3.542C93.94,98.884,95.453,98.033,97.088,98.411z M33.173,131.538
		c0.793,2.414,1.818,3.564,3.116,3.611c1.607,0.06,2.536-1.004,3.185-3.647C36.513,127.77,35.956,128.177,33.173,131.538z
		 M69.404,147.979c-0.011-1.623-0.605-2.43-1.761-2.393c-1.032,0.031-2.453,1.479-2.425,2.47c0.028,1.015,1.493,2.416,2.499,2.392
		C68.85,150.42,69.416,149.593,69.404,147.979z"/>
	<path fill-rule="evenodd" clip-rule="evenodd" fill="#A79897" d="M46.457,92.744c-1.167,2.781-2.335,5.56-3.498,8.341
		c-2.066,4.947-3.926,9.934-4.976,15.246c-0.524,2.649-1.38,5.205-1.356,7.966c0.006,0.599-0.706,1.332-1.266,1.78
		c-0.958,0.769-2.17,1.234-3.074,2.051c-2.452,2.213-2.572,5.311-0.061,7.771c0.413,0.405,0.775,0.97,1.275,1.159
		c2.071,0.786,2.465,2.417,2.51,4.364c0.217,9.207,2.602,17.916,5.884,26.465c2.768,7.207,6.696,13.744,11.143,19.956
		c2.325,3.245,5.335,6.001,8.084,8.933c1.267,1.351,2.649,2.591,3.997,3.896c-1.379,2.824-1.815,5.746-1.041,8.621
		c0.595,2.209,2.013,4.166,3.952,5.457c3.419,2.275,7.955,3.48,14.713-1.787c1.994,0.822,4.049,1.68,6.114,2.52
		c5.801,2.367,11.757,4.107,17.936,5.311c7.963,1.553,15.997,1.799,23.945,1.146c8.563-0.708,16.942-2.93,24.876-6.437
		c3.279-1.449,6.504-3.022,9.75-4.541c-0.912,2.982-2.93,5.352-4.756,7.711c-3.211,4.148-6.654,8.17-10.4,11.832
		c-4.867,4.754-10.395,8.736-16.27,12.211c-5.821,3.449-12.023,6.002-18.437,8.086c-1.018,0.33-2.011,0.738-3.015,1.111
		c-3.311,0.659-6.619,1.319-9.928,1.984c-0.219,0.045-0.424,0.172-0.639,0.186c-5.954,0.412-11.916,1.172-17.876,0.648
		c-4.685-0.409-9.363-1.164-13.97-2.122c-1.835-0.384-3.54-1.461-5.531-1.361c-0.341-0.233-0.648-0.573-1.025-0.69
		c-7.67-2.402-14.98-5.563-21.41-10.471c-3.918-2.992-7.898-5.948-11.519-9.281c-6.026-5.543-11.035-11.945-15.161-19.058
		c-6.55-11.293-10.705-23.3-11.498-36.397c-0.054-0.889-0.392-1.761-0.597-2.641c0.005-1.5-0.017-3.006,0.017-4.509
		c0.219-9.812,1.562-19.426,4.787-28.751c3.217-9.307,7.656-17.917,13.934-25.536c2.039-2.474,3.857-5.197,6.201-7.34
		C33.906,101.427,39.391,96.027,46.457,92.744z"/>
	<path fill-rule="evenodd" clip-rule="evenodd" fill="#928783" d="M163.311,167.434c1.051,9.189-8.316,17.186-16.6,17.054
		c-10.256-0.16-17.633-7.72-17.495-17.632c0.134-9.63,7.534-16.761,16.687-17.031C155.434,149.543,164.508,157.78,163.311,167.434z"
		/>
	<path fill-rule="evenodd" clip-rule="evenodd" fill="#928783" d="M103.484,169.629c0.569,4.851-4.003,8.842-8.282,8.707
		c-5.096-0.156-8.542-3.491-9.042-8.283c-0.464-4.467,4.219-9.092,8.815-9.162C99.487,160.823,103.485,164.929,103.484,169.629z"/>
	<path fill-rule="evenodd" clip-rule="evenodd" fill="#928783" d="M73.943,213.757c-4.038-0.045-7.343-3.366-7.333-7.373
		c0.012-4.22,3.547-8.016,7.625-7.89c3.825,0.121,7.721,4.063,7.663,8.101C81.843,210.531,78.173,213.799,73.943,213.757z"/>
	<path fill-rule="evenodd" clip-rule="evenodd" fill="#928783" d="M67.314,117.355c0.356,4.636-4.078,7.025-7.413,7.254
		c-3.624,0.25-7.194-3.823-7.2-7.53c-0.007-3.978,4.001-8.006,7.861-7.624C64.637,109.858,68.097,113.837,67.314,117.355z"/>
	<path fill-rule="evenodd" clip-rule="evenodd" fill="#928783" d="M105.465,144.192c-3.359-0.029-6.189-2.948-6.16-6.355
		c0.027-3.361,2.95-6.195,6.354-6.164c3.357,0.028,6.195,2.955,6.166,6.355C111.794,141.385,108.872,144.221,105.465,144.192z"/>
	<path fill-rule="evenodd" clip-rule="evenodd" fill="#928783" d="M97.088,98.411c-1.635-0.378-3.148,0.473-4.231-0.72
		c-0.97-1.071-1.961-2.237-2.514-3.542c-0.577-1.368,1.303-3.665,3.373-4.547c1.687-0.718,4.497,0.11,5.239,1.86
		c0.459,1.083,0.56,2.525,0.265,3.662C98.933,96.235,97.937,97.163,97.088,98.411z"/>
	<path fill-rule="evenodd" clip-rule="evenodd" fill="#928783" d="M33.173,131.538c2.783-3.36,3.34-3.768,6.301-0.036
		c-0.648,2.644-1.577,3.707-3.185,3.647C34.991,135.102,33.966,133.952,33.173,131.538z"/>
	<path fill-rule="evenodd" clip-rule="evenodd" fill="#928783" d="M69.404,147.979c0.012,1.614-0.554,2.441-1.688,2.469
		c-1.005,0.024-2.47-1.377-2.499-2.392c-0.028-0.99,1.393-2.438,2.425-2.47C68.799,145.549,69.393,146.356,69.404,147.979z"/>
</g>
</svg>
