<svg version="1.1" id="Layer_1" xmlns="http://www.w3.org/2000/svg" xmlns:xlink="http://www.w3.org/1999/xlink" x="0px" y="0px"
	viewBox="0 0 106.535 30.737" enable-background="new 0 0 106.535 30.737"
	 xml:space="preserve">
<g opacity="0.7">
	<path fill="#FFFFFF" d="M23.433,15.351c-0.342,0-0.658-0.224-0.758-0.569c-0.993-3.377-3.732-5.99-7.147-6.82
		c-0.03-0.006-0.059-0.013-0.086-0.02l-0.045-0.009c-0.426-0.098-0.692-0.522-0.597-0.949c0.098-0.426,0.523-0.693,0.95-0.596
		l0.04,0.008c0.038,0.009,0.073,0.017,0.111,0.026c3.964,0.963,7.142,3.996,8.293,7.914c0.123,0.419-0.117,0.859-0.537,0.983
		C23.583,15.34,23.507,15.351,23.433,15.351z"/>
</g>
<g opacity="0.7">
	<path fill="#FFFFFF" d="M26.552,14.357c-0.342,0-0.656-0.222-0.759-0.565c-1.337-4.46-4.975-7.912-9.492-9.009
		c-0.048-0.011-0.095-0.021-0.144-0.032l-0.062-0.015c-0.425-0.097-0.694-0.521-0.597-0.948c0.098-0.427,0.522-0.694,0.949-0.596
		l0.059,0.013c0.057,0.014,0.112,0.026,0.169,0.04c5.061,1.23,9.136,5.097,10.634,10.094c0.126,0.419-0.112,0.86-0.531,0.986
		C26.704,14.346,26.626,14.357,26.552,14.357z"/>
</g>
<g opacity="0.7">
	<path fill="#FFFFFF" d="M29.645,13.37c-0.339,0-0.653-0.221-0.758-0.563c-1.68-5.533-6.209-9.817-11.819-11.179
		c-0.074-0.019-0.146-0.034-0.219-0.051l-0.061-0.013c-0.425-0.096-0.694-0.521-0.598-0.947c0.097-0.427,0.52-0.695,0.948-0.598
		l0.058,0.013c0.082,0.018,0.163,0.037,0.246,0.056c3.093,0.751,5.934,2.311,8.215,4.507c2.212,2.131,3.853,4.812,4.746,7.751
		c0.128,0.418-0.109,0.861-0.527,0.988C29.797,13.359,29.72,13.37,29.645,13.37z"/>
</g>
<g>
	<path fill-rule="evenodd" clip-rule="evenodd" fill="#E1D8D6" d="M21.24,20.55c-0.106,1.106-0.275,2.2-0.693,3.239
		c-0.22,0.547-0.428,1.101-0.763,1.592c-0.396,0.185-0.789,0.377-1.188,0.554c-0.967,0.428-1.988,0.698-3.031,0.784
		c-0.97,0.08-1.948,0.049-2.918-0.14c-0.753-0.146-1.479-0.359-2.187-0.646c-0.25-0.104-0.501-0.208-0.744-0.308
		c-0.824,0.642-1.377,0.495-1.793,0.218c-0.235-0.158-0.409-0.396-0.482-0.666c-0.094-0.351-0.041-0.706,0.127-1.049
		c-0.163-0.159-0.332-0.31-0.487-0.475c-0.333-0.357-0.702-0.693-0.984-1.089c-0.542-0.757-1.021-1.553-1.358-2.432
		c-0.4-1.042-0.691-2.102-0.717-3.225c-0.005-0.237-0.052-0.436-0.306-0.532c-0.06-0.023-0.106-0.092-0.156-0.142
		c-0.305-0.299-0.291-0.677,0.009-0.947c0.109-0.1,0.257-0.156,0.375-0.25c0.067-0.054,0.154-0.143,0.154-0.217
		c-0.003-0.336,0.103-0.648,0.165-0.97c0.129-0.648,0.354-1.255,0.607-1.858c0.141-0.339,0.283-0.677,0.425-1.017
		c0.771-0.51,1.626-0.834,2.503-1.097c1.282-0.384,2.601-0.435,3.918-0.33c1.012,0.08,1.995,0.334,2.941,0.725
		c1.501,0.621,2.805,1.523,3.88,2.734c1.219,1.369,2.049,2.949,2.437,4.749c0.167,0.768,0.272,1.542,0.255,2.331
		C21.225,20.241,21.235,20.396,21.24,20.55z M19.533,20.078c0.146-1.176-0.959-2.181-2.121-2.146
		c-1.116,0.032-2.017,0.902-2.033,2.075c-0.017,1.208,0.882,2.13,2.132,2.149C18.52,22.171,19.661,21.198,19.533,20.078z
		 M12.243,20.345c0-0.573-0.486-1.074-1.037-1.065c-0.56,0.008-1.13,0.572-1.073,1.117c0.061,0.584,0.48,0.99,1.1,1.01
		C11.755,21.423,12.312,20.937,12.243,20.345z M8.644,25.723c0.515,0.005,0.962-0.393,0.969-0.873
		c0.007-0.492-0.467-0.973-0.933-0.987c-0.497-0.015-0.928,0.447-0.93,0.961C7.748,25.313,8.15,25.717,8.644,25.723z M7.835,13.975
		c0.095-0.428-0.327-0.914-0.822-0.962c-0.471-0.047-0.96,0.444-0.958,0.929c0,0.452,0.436,0.948,0.878,0.917
		C7.338,14.832,7.878,14.54,7.835,13.975z M12.485,17.245c0.414,0.004,0.771-0.342,0.774-0.751c0.004-0.414-0.343-0.771-0.752-0.774
		c-0.414-0.004-0.771,0.342-0.774,0.75C11.73,16.887,12.075,17.242,12.485,17.245z M11.463,11.667
		c0.104-0.153,0.225-0.266,0.26-0.401c0.036-0.138,0.023-0.314-0.032-0.446c-0.09-0.213-0.433-0.314-0.638-0.227
		c-0.252,0.107-0.482,0.387-0.412,0.554c0.066,0.159,0.188,0.301,0.306,0.432C11.079,11.724,11.266,11.621,11.463,11.667z
		 M3.675,15.704c0.096,0.294,0.221,0.435,0.379,0.439c0.196,0.008,0.309-0.122,0.387-0.444C4.081,15.245,4.013,15.294,3.675,15.704z
		 M8.089,17.707c0-0.198-0.073-0.296-0.215-0.292c-0.125,0.003-0.298,0.18-0.295,0.301c0.004,0.124,0.183,0.294,0.304,0.291
		C8.022,18.004,8.091,17.904,8.089,17.707z"/>
	<path fill-rule="evenodd" clip-rule="evenodd" fill="#A79897" d="M5.293,10.976c-0.143,0.339-0.284,0.678-0.425,1.017
		c-0.253,0.603-0.478,1.209-0.607,1.858c-0.062,0.322-0.168,0.634-0.165,0.97c0,0.074-0.086,0.163-0.154,0.217
		c-0.117,0.094-0.266,0.15-0.375,0.25c-0.299,0.27-0.313,0.647-0.009,0.947c0.05,0.049,0.096,0.119,0.156,0.142
		c0.253,0.096,0.3,0.294,0.306,0.532c0.026,1.123,0.317,2.183,0.717,3.225c0.336,0.879,0.816,1.675,1.358,2.432
		c0.282,0.396,0.651,0.731,0.984,1.089c0.155,0.165,0.325,0.316,0.487,0.475C7.4,24.472,7.347,24.827,7.44,25.178
		c0.074,0.27,0.248,0.508,0.482,0.666c0.416,0.277,0.969,0.424,1.793-0.218c0.243,0.1,0.494,0.204,0.744,0.308
		c0.708,0.287,1.434,0.5,2.187,0.646c0.97,0.189,1.948,0.22,2.918,0.14c1.043-0.086,2.064-0.356,3.031-0.784
		c0.4-0.176,0.793-0.369,1.188-0.554c-0.112,0.364-0.357,0.653-0.579,0.939c-0.392,0.506-0.813,0.996-1.267,1.442
		c-0.593,0.58-1.267,1.065-1.983,1.488c-0.71,0.421-1.465,0.732-2.248,0.986c-0.124,0.041-0.244,0.09-0.367,0.135
		c-0.403,0.08-0.807,0.16-1.21,0.243c-0.026,0.004-0.052,0.021-0.079,0.021c-0.725,0.05-1.451,0.143-2.177,0.079
		c-0.571-0.05-1.14-0.142-1.702-0.259c-0.223-0.047-0.431-0.178-0.674-0.166c-0.042-0.028-0.08-0.069-0.125-0.085
		c-0.935-0.291-1.826-0.677-2.61-1.275C4.286,28.567,3.801,28.206,3.36,27.8c-0.733-0.676-1.345-1.455-1.848-2.322
		c-0.797-1.376-1.304-2.839-1.4-4.435c-0.007-0.109-0.048-0.215-0.073-0.322c0.001-0.183-0.002-0.366,0.002-0.55
		c0.027-1.196,0.19-2.368,0.583-3.503c0.392-1.134,0.933-2.183,1.698-3.112c0.249-0.302,0.47-0.633,0.754-0.895
		C3.764,12.034,4.433,11.376,5.293,10.976z"/>
	<path fill-rule="evenodd" clip-rule="evenodd" fill="#928783" d="M19.533,20.078c0.128,1.12-1.013,2.094-2.022,2.078
		c-1.25-0.019-2.149-0.94-2.132-2.149c0.016-1.173,0.917-2.042,2.033-2.075C18.574,17.897,19.679,18.901,19.533,20.078z"/>
	<path fill-rule="evenodd" clip-rule="evenodd" fill="#928783" d="M12.243,20.345c0.069,0.591-0.488,1.078-1.01,1.062
		c-0.62-0.02-1.039-0.426-1.1-1.01c-0.057-0.544,0.513-1.108,1.073-1.117C11.756,19.271,12.243,19.772,12.243,20.345z"/>
	<path fill-rule="evenodd" clip-rule="evenodd" fill="#928783" d="M8.644,25.723c-0.493-0.005-0.896-0.41-0.895-0.898
		c0.002-0.515,0.433-0.977,0.93-0.961c0.466,0.014,0.94,0.495,0.933,0.987C9.606,25.33,9.158,25.728,8.644,25.723z"/>
	<path fill-rule="evenodd" clip-rule="evenodd" fill="#928783" d="M7.835,13.975c0.042,0.565-0.497,0.857-0.903,0.884
		c-0.442,0.031-0.878-0.466-0.878-0.917c-0.001-0.484,0.487-0.976,0.958-0.929C7.509,13.062,7.931,13.547,7.835,13.975z"/>
	<path fill-rule="evenodd" clip-rule="evenodd" fill="#928783" d="M12.485,17.245c-0.411-0.003-0.755-0.358-0.752-0.775
		c0.003-0.409,0.36-0.754,0.774-0.75c0.409,0.003,0.756,0.361,0.752,0.774C13.257,16.903,12.899,17.25,12.485,17.245z"/>
	<path fill-rule="evenodd" clip-rule="evenodd" fill="#928783" d="M11.463,11.667c-0.198-0.046-0.384,0.057-0.516-0.087
		c-0.118-0.131-0.24-0.273-0.306-0.432c-0.071-0.167,0.159-0.447,0.412-0.554c0.205-0.087,0.547,0.014,0.638,0.227
		c0.056,0.132,0.068,0.308,0.032,0.446C11.688,11.401,11.568,11.514,11.463,11.667z"/>
	<path fill-rule="evenodd" clip-rule="evenodd" fill="#928783" d="M3.675,15.704c0.338-0.409,0.406-0.459,0.766-0.004
		c-0.078,0.322-0.191,0.452-0.387,0.444C3.896,16.138,3.771,15.998,3.675,15.704z"/>
	<path fill-rule="evenodd" clip-rule="evenodd" fill="#928783" d="M8.089,17.707c0.002,0.197-0.067,0.297-0.206,0.3
		c-0.121,0.004-0.3-0.167-0.304-0.291c-0.003-0.121,0.169-0.297,0.295-0.301C8.016,17.411,8.089,17.509,8.089,17.707z"/>
</g>
<g>
	<path fill="#FFFFFF" d="M38.042,17.536v3.768h-1.794V11.66h2.941c0.658,0,1.222,0.068,1.691,0.204
		c0.468,0.136,0.853,0.326,1.153,0.57c0.301,0.245,0.521,0.537,0.661,0.877c0.14,0.34,0.209,0.714,0.209,1.124
		c0,0.325-0.047,0.631-0.143,0.92c-0.096,0.289-0.234,0.551-0.414,0.787s-0.402,0.442-0.667,0.621
		c-0.265,0.178-0.566,0.32-0.903,0.426c0.227,0.129,0.421,0.314,0.587,0.554l2.414,3.562h-1.614c-0.156,0-0.288-0.031-0.396-0.093
		c-0.109-0.063-0.201-0.151-0.277-0.267l-2.028-3.088c-0.076-0.115-0.159-0.197-0.25-0.247c-0.09-0.049-0.226-0.073-0.403-0.073
		H38.042z M38.042,16.249h1.12c0.338,0,0.633-0.042,0.883-0.126c0.251-0.085,0.458-0.202,0.621-0.35
		c0.162-0.149,0.284-0.326,0.363-0.531c0.08-0.205,0.121-0.429,0.121-0.673c0-0.489-0.162-0.865-0.484-1.127
		c-0.322-0.262-0.814-0.393-1.477-0.393h-1.147V16.249z"/>
	<path fill="#FFFFFF" d="M53.855,16.482c0,0.707-0.118,1.362-0.353,1.964c-0.236,0.603-0.567,1.124-0.994,1.564
		c-0.427,0.44-0.941,0.784-1.541,1.031c-0.6,0.246-1.265,0.37-1.994,0.37s-1.396-0.124-1.998-0.37
		c-0.603-0.247-1.118-0.591-1.547-1.031c-0.429-0.44-0.761-0.961-0.998-1.564c-0.235-0.602-0.354-1.257-0.354-1.964
		c0-0.707,0.118-1.361,0.354-1.964c0.236-0.603,0.568-1.124,0.998-1.564c0.429-0.44,0.945-0.784,1.547-1.031
		c0.602-0.246,1.269-0.37,1.998-0.37s1.394,0.125,1.994,0.373c0.6,0.25,1.114,0.593,1.541,1.031c0.427,0.438,0.758,0.958,0.994,1.56
		C53.737,15.121,53.855,15.775,53.855,16.482z M52.014,16.482c0-0.529-0.07-1.003-0.21-1.423c-0.14-0.42-0.342-0.777-0.604-1.07
		c-0.262-0.293-0.582-0.519-0.957-0.674c-0.375-0.156-0.799-0.233-1.27-0.233c-0.472,0-0.896,0.077-1.274,0.233
		c-0.378,0.155-0.699,0.38-0.964,0.674c-0.265,0.293-0.468,0.65-0.61,1.07c-0.143,0.42-0.214,0.895-0.214,1.423
		c0,0.53,0.071,1.004,0.214,1.424c0.142,0.42,0.345,0.776,0.61,1.067s0.586,0.515,0.964,0.67c0.378,0.156,0.802,0.234,1.274,0.234
		c0.471,0,0.895-0.078,1.27-0.234c0.375-0.155,0.695-0.379,0.957-0.67s0.464-0.647,0.604-1.067
		C51.944,17.486,52.014,17.012,52.014,16.482z"/>
	<path fill="#FFFFFF" d="M61.898,19.03c0.098,0,0.183,0.038,0.253,0.114l0.707,0.767c-0.391,0.484-0.873,0.855-1.443,1.113
		c-0.572,0.258-1.258,0.387-2.058,0.387c-0.716,0-1.36-0.122-1.932-0.367c-0.57-0.244-1.059-0.584-1.463-1.021
		c-0.404-0.436-0.714-0.956-0.931-1.561c-0.215-0.604-0.323-1.265-0.323-1.981c0-0.724,0.121-1.388,0.36-1.99
		c0.24-0.603,0.578-1.122,1.014-1.558c0.435-0.436,0.957-0.774,1.563-1.017c0.607-0.242,1.277-0.363,2.011-0.363
		c0.716,0,1.343,0.114,1.877,0.343c0.536,0.229,0.995,0.533,1.378,0.911l-0.601,0.833c-0.036,0.054-0.081,0.1-0.136,0.14
		c-0.056,0.04-0.133,0.06-0.23,0.06c-0.103,0-0.207-0.04-0.313-0.12c-0.107-0.08-0.243-0.167-0.407-0.26
		c-0.164-0.093-0.372-0.18-0.624-0.26c-0.251-0.081-0.57-0.12-0.957-0.12c-0.454,0-0.871,0.079-1.25,0.236
		c-0.381,0.158-0.707,0.383-0.98,0.677c-0.273,0.293-0.486,0.65-0.641,1.07c-0.153,0.42-0.229,0.893-0.229,1.417
		c0,0.542,0.077,1.025,0.229,1.448c0.154,0.422,0.361,0.778,0.623,1.067c0.263,0.289,0.572,0.51,0.928,0.664
		c0.355,0.154,0.738,0.23,1.146,0.23c0.246,0,0.466-0.013,0.664-0.04c0.198-0.027,0.38-0.069,0.547-0.127
		c0.167-0.058,0.324-0.132,0.473-0.224c0.149-0.091,0.297-0.203,0.444-0.336c0.044-0.041,0.091-0.072,0.14-0.097
		C61.787,19.042,61.84,19.03,61.898,19.03z"/>
	<path fill="#FFFFFF" d="M66.066,15.702h0.42c0.169,0,0.309-0.023,0.42-0.07c0.111-0.047,0.207-0.121,0.288-0.223l2.661-3.368
		c0.111-0.143,0.228-0.241,0.35-0.296c0.122-0.056,0.277-0.084,0.463-0.084h1.547l-3.248,4.008
		c-0.102,0.125-0.199,0.229-0.293,0.314c-0.093,0.084-0.193,0.153-0.299,0.207c0.146,0.053,0.279,0.129,0.396,0.227
		c0.119,0.098,0.233,0.223,0.343,0.374l3.348,4.515h-1.587c-0.214,0-0.373-0.03-0.477-0.09c-0.105-0.06-0.192-0.147-0.264-0.264
		l-2.727-3.561c-0.089-0.115-0.19-0.199-0.3-0.25c-0.112-0.051-0.27-0.077-0.474-0.077h-0.567v4.242h-1.794v-9.65h1.794V15.702z"/>
	<path fill="#FFFFFF" d="M82.793,11.747v1.087h-3.088v8.47h-1.293v-8.47H75.31v-1.087H82.793z"/>
	<path fill="#FFFFFF" d="M91.136,21.304h-1c-0.115,0-0.209-0.029-0.28-0.086c-0.071-0.058-0.125-0.131-0.16-0.22l-0.894-2.308
		h-4.289l-0.894,2.308c-0.031,0.08-0.084,0.151-0.16,0.213c-0.076,0.062-0.169,0.093-0.28,0.093h-1.001L86,11.747h1.314
		L91.136,21.304z M84.873,17.756h3.568l-1.5-3.888c-0.098-0.24-0.193-0.54-0.286-0.9c-0.05,0.182-0.097,0.35-0.144,0.503
		c-0.047,0.153-0.092,0.288-0.136,0.403L84.873,17.756z"/>
	<path fill="#FFFFFF" d="M93.637,20.217h4.135v1.087h-5.429v-9.557h1.293V20.217z"/>
	<path fill="#FFFFFF" d="M100.62,15.936h0.487c0.169,0,0.304-0.021,0.404-0.063c0.099-0.042,0.194-0.114,0.283-0.217l3.181-3.601
		c0.099-0.111,0.193-0.19,0.284-0.237c0.091-0.047,0.208-0.07,0.35-0.07h1.101l-3.642,4.115c-0.093,0.103-0.181,0.189-0.263,0.261
		c-0.082,0.071-0.169,0.129-0.264,0.173c0.125,0.04,0.233,0.101,0.327,0.18c0.093,0.08,0.191,0.18,0.293,0.3l3.801,4.529h-1.121
		c-0.084,0-0.155-0.007-0.214-0.02c-0.057-0.013-0.107-0.031-0.149-0.053c-0.042-0.022-0.082-0.051-0.117-0.087
		c-0.036-0.036-0.071-0.073-0.106-0.113l-3.302-3.795c-0.049-0.053-0.094-0.099-0.136-0.137c-0.042-0.038-0.091-0.07-0.147-0.096
		c-0.055-0.027-0.12-0.046-0.193-0.057c-0.073-0.011-0.163-0.017-0.27-0.017h-0.587v4.375h-1.288v-9.557h1.288V15.936z"/>
</g>
</svg>
