<svg version="1.1" id="Layer_1" xmlns="http://www.w3.org/2000/svg" xmlns:xlink="http://www.w3.org/1999/xlink" x="0px" y="0px"
	 viewBox="0 0 97.176 26.466" enable-background="new 0 0 97.176 26.466" xml:space="preserve">
<g opacity="0.7">
	<path fill="#FFFFFF" d="M20.144,13.218c-0.295,0-0.566-0.192-0.653-0.49c-0.854-2.908-3.213-5.158-6.153-5.873
		c-0.025-0.006-0.051-0.012-0.074-0.017L13.225,6.83c-0.367-0.084-0.597-0.45-0.514-0.817c0.084-0.367,0.45-0.597,0.817-0.513
		l0.034,0.007c0.032,0.008,0.063,0.015,0.096,0.022c3.413,0.829,6.149,3.44,7.141,6.814c0.105,0.361-0.101,0.74-0.463,0.847
		C20.272,13.209,20.207,13.218,20.144,13.218z"/>
</g>
<g opacity="0.7">
	<path fill="#FFFFFF" d="M22.828,12.362c-0.294,0-0.564-0.191-0.653-0.487c-1.151-3.84-4.283-6.812-8.173-7.757
		C13.961,4.109,13.92,4.1,13.879,4.09l-0.054-0.013c-0.366-0.083-0.598-0.449-0.514-0.816s0.449-0.597,0.816-0.513l0.051,0.011
		c0.049,0.011,0.097,0.022,0.146,0.034c4.357,1.059,7.866,4.389,9.156,8.691c0.109,0.361-0.097,0.741-0.457,0.849
		C22.959,12.353,22.893,12.362,22.828,12.362z"/>
</g>
<g opacity="0.7">
	<path fill="#FFFFFF" d="M25.491,11.513c-0.292,0-0.563-0.19-0.652-0.484c-1.446-4.764-5.347-8.453-10.177-9.626
		c-0.063-0.016-0.125-0.029-0.188-0.043l-0.052-0.011c-0.367-0.083-0.598-0.448-0.515-0.815c0.083-0.368,0.447-0.598,0.815-0.515
		l0.05,0.011c0.07,0.015,0.141,0.031,0.212,0.048c2.663,0.647,5.109,1.989,7.073,3.881c1.904,1.835,3.317,4.143,4.086,6.674
		c0.11,0.36-0.094,0.742-0.453,0.851C25.623,11.503,25.557,11.513,25.491,11.513z"/>
</g>
<g>
	<path fill-rule="evenodd" clip-rule="evenodd" fill="#E1D8D6" d="M18.255,17.695c-0.091,0.953-0.236,1.895-0.597,2.789
		c-0.189,0.471-0.368,0.947-0.657,1.371c-0.341,0.159-0.679,0.324-1.023,0.477c-0.832,0.368-1.712,0.602-2.609,0.676
		c-0.835,0.068-1.678,0.042-2.513-0.121c-0.648-0.125-1.273-0.309-1.883-0.557c-0.216-0.088-0.432-0.178-0.641-0.264
		c-0.709,0.553-1.186,0.426-1.544,0.188c-0.202-0.137-0.352-0.342-0.415-0.574c-0.081-0.301-0.035-0.607,0.109-0.903
		c-0.141-0.138-0.286-0.267-0.42-0.409c-0.287-0.308-0.604-0.597-0.848-0.938c-0.467-0.651-0.879-1.338-1.169-2.094
		c-0.345-0.896-0.595-1.811-0.617-2.777c-0.005-0.204-0.046-0.375-0.264-0.458c-0.052-0.02-0.091-0.08-0.134-0.122
		c-0.263-0.258-0.251-0.583,0.007-0.815c0.094-0.085,0.222-0.134,0.322-0.215c0.059-0.047,0.133-0.124,0.133-0.187
		c-0.003-0.29,0.088-0.558,0.142-0.835c0.111-0.558,0.306-1.081,0.522-1.6c0.122-0.292,0.244-0.583,0.367-0.875
		C5.188,9.012,5.924,8.733,6.68,8.507c1.104-0.331,2.239-0.375,3.373-0.284c0.871,0.069,1.718,0.288,2.533,0.624
		c1.293,0.534,2.415,1.311,3.341,2.354c1.05,1.179,1.765,2.539,2.099,4.088c0.144,0.662,0.234,1.328,0.22,2.008
		C18.242,17.429,18.251,17.562,18.255,17.695z M16.785,17.289c0.126-1.014-0.826-1.878-1.826-1.848
		c-0.961,0.027-1.737,0.776-1.751,1.786c-0.015,1.04,0.76,1.833,1.836,1.851C15.913,19.091,16.896,18.252,16.785,17.289z
		 M10.508,17.519c0-0.494-0.419-0.925-0.893-0.918c-0.482,0.008-0.974,0.493-0.925,0.962c0.053,0.503,0.414,0.853,0.948,0.869
		C10.088,18.447,10.567,18.028,10.508,17.519z M7.409,22.148c0.443,0.005,0.828-0.338,0.834-0.751
		c0.006-0.424-0.402-0.837-0.804-0.85c-0.428-0.013-0.799,0.385-0.801,0.827C6.638,21.795,6.984,22.144,7.409,22.148z M6.713,12.034
		c0.082-0.369-0.281-0.787-0.708-0.829c-0.405-0.04-0.826,0.383-0.825,0.8c0,0.389,0.375,0.817,0.756,0.791
		C6.285,12.771,6.75,12.52,6.713,12.034z M10.717,14.849c0.356,0.004,0.664-0.294,0.666-0.646c0.004-0.356-0.295-0.664-0.646-0.667
		c-0.357-0.003-0.664,0.294-0.667,0.646C10.066,14.541,10.363,14.847,10.717,14.849z M9.837,10.046
		c0.09-0.131,0.193-0.229,0.224-0.345c0.031-0.119,0.021-0.271-0.027-0.384C9.955,9.133,9.66,9.046,9.483,9.122
		C9.267,9.214,9.068,9.455,9.129,9.599c0.058,0.137,0.162,0.259,0.264,0.372C9.506,10.095,9.666,10.006,9.837,10.046z M3.131,13.522
		c0.083,0.253,0.19,0.374,0.326,0.378c0.169,0.006,0.267-0.105,0.334-0.382C3.48,13.126,3.422,13.169,3.131,13.522z M6.932,15.248
		c0-0.171-0.063-0.256-0.185-0.252C6.639,15,6.49,15.151,6.493,15.255c0.003,0.105,0.157,0.253,0.262,0.25
		C6.874,15.503,6.934,15.417,6.932,15.248z"/>
	<path fill-rule="evenodd" clip-rule="evenodd" fill="#A79897" d="M4.524,9.451c-0.123,0.292-0.245,0.583-0.367,0.875
		c-0.217,0.519-0.411,1.042-0.522,1.6c-0.054,0.278-0.145,0.546-0.142,0.835c0,0.063-0.074,0.14-0.133,0.187
		c-0.101,0.081-0.229,0.129-0.322,0.215c-0.258,0.232-0.27,0.558-0.007,0.815c0.043,0.042,0.082,0.102,0.134,0.122
		c0.218,0.082,0.259,0.253,0.264,0.458c0.022,0.966,0.272,1.88,0.617,2.777c0.29,0.756,0.702,1.442,1.169,2.094
		c0.243,0.341,0.561,0.63,0.848,0.938c0.134,0.143,0.279,0.271,0.42,0.409c-0.145,0.296-0.19,0.603-0.109,0.903
		c0.063,0.232,0.213,0.438,0.415,0.574c0.358,0.238,0.835,0.365,1.544-0.188c0.209,0.086,0.425,0.176,0.641,0.264
		c0.609,0.248,1.234,0.432,1.883,0.557c0.835,0.163,1.678,0.189,2.513,0.121c0.897-0.074,1.777-0.308,2.609-0.676
		c0.345-0.152,0.683-0.317,1.023-0.477c-0.096,0.313-0.308,0.562-0.498,0.809c-0.338,0.436-0.7,0.857-1.092,1.242
		c-0.511,0.498-1.091,0.916-1.707,1.281c-0.611,0.361-1.262,0.63-1.936,0.848c-0.106,0.035-0.21,0.078-0.316,0.117
		c-0.347,0.069-0.694,0.139-1.041,0.209c-0.022,0.004-0.045,0.018-0.067,0.019c-0.625,0.044-1.25,0.123-1.875,0.068
		c-0.492-0.043-0.982-0.122-1.466-0.223c-0.192-0.04-0.371-0.153-0.58-0.144c-0.036-0.023-0.068-0.059-0.107-0.072
		c-0.805-0.252-1.572-0.583-2.247-1.098c-0.411-0.314-0.829-0.625-1.209-0.975c-0.631-0.582-1.158-1.253-1.591-2
		c-0.687-1.185-1.123-2.443-1.206-3.818C0.057,18.025,0.021,17.933,0,17.841c0.001-0.157-0.002-0.314,0.002-0.473
		c0.023-1.029,0.164-2.039,0.502-3.017c0.338-0.977,0.804-1.879,1.463-2.679c0.214-0.26,0.404-0.545,0.649-0.77
		C3.208,10.362,3.783,9.795,4.524,9.451z"/>
	<path fill-rule="evenodd" clip-rule="evenodd" fill="#928783" d="M16.785,17.289c0.11,0.964-0.872,1.803-1.741,1.789
		c-1.076-0.018-1.851-0.811-1.836-1.851c0.014-1.01,0.79-1.759,1.751-1.786C15.959,15.411,16.911,16.275,16.785,17.289z"/>
	<path fill-rule="evenodd" clip-rule="evenodd" fill="#928783" d="M10.508,17.519c0.06,0.509-0.42,0.928-0.869,0.913
		c-0.534-0.017-0.896-0.366-0.948-0.869c-0.049-0.469,0.442-0.954,0.925-0.962C10.089,16.594,10.508,17.025,10.508,17.519z"/>
	<path fill-rule="evenodd" clip-rule="evenodd" fill="#928783" d="M7.409,22.148c-0.425-0.004-0.771-0.353-0.771-0.773
		c0.002-0.442,0.373-0.84,0.801-0.827c0.401,0.013,0.81,0.426,0.804,0.85C8.237,21.81,7.853,22.153,7.409,22.148z"/>
	<path fill-rule="evenodd" clip-rule="evenodd" fill="#928783" d="M6.713,12.034c0.037,0.486-0.428,0.737-0.777,0.761
		c-0.381,0.026-0.756-0.401-0.756-0.791c-0.001-0.417,0.42-0.84,0.825-0.8C6.432,11.247,6.795,11.665,6.713,12.034z"/>
	<path fill-rule="evenodd" clip-rule="evenodd" fill="#928783" d="M10.717,14.849c-0.354-0.002-0.65-0.309-0.647-0.667
		c0.003-0.352,0.31-0.65,0.667-0.646c0.352,0.003,0.65,0.311,0.646,0.667C11.381,14.555,11.073,14.853,10.717,14.849z"/>
	<path fill-rule="evenodd" clip-rule="evenodd" fill="#928783" d="M9.837,10.046c-0.171-0.04-0.331,0.049-0.444-0.075
		C9.291,9.858,9.187,9.736,9.129,9.599C9.068,9.455,9.267,9.214,9.483,9.122c0.177-0.075,0.472,0.012,0.55,0.195
		c0.048,0.113,0.059,0.265,0.027,0.384C10.03,9.817,9.927,9.915,9.837,10.046z"/>
	<path fill-rule="evenodd" clip-rule="evenodd" fill="#928783" d="M3.131,13.522c0.291-0.353,0.35-0.396,0.66-0.004
		c-0.067,0.277-0.165,0.389-0.334,0.382C3.321,13.896,3.214,13.775,3.131,13.522z"/>
	<path fill-rule="evenodd" clip-rule="evenodd" fill="#928783" d="M6.932,15.248c0.002,0.169-0.058,0.256-0.177,0.258
		c-0.104,0.003-0.259-0.145-0.262-0.25C6.49,15.151,6.639,15,6.747,14.996C6.869,14.992,6.932,15.077,6.932,15.248z"/>
</g>
<g>
	<path fill="#FFFFFF" d="M35.172,16.997v3.39h-1.614v-8.676h2.646c0.592,0,1.099,0.061,1.521,0.183
		c0.422,0.122,0.769,0.293,1.038,0.513c0.271,0.22,0.468,0.483,0.594,0.789c0.127,0.306,0.189,0.643,0.189,1.011
		c0,0.292-0.043,0.568-0.129,0.828c-0.086,0.26-0.21,0.496-0.372,0.708s-0.362,0.398-0.6,0.558c-0.238,0.16-0.51,0.288-0.813,0.384
		c0.204,0.116,0.38,0.282,0.528,0.498l2.172,3.204H38.88c-0.14,0-0.259-0.028-0.357-0.084c-0.098-0.056-0.181-0.136-0.248-0.24
		l-1.824-2.778c-0.068-0.104-0.144-0.178-0.226-0.222c-0.082-0.044-0.203-0.066-0.362-0.066H35.172z M35.172,15.839h1.008
		c0.304,0,0.569-0.038,0.795-0.114c0.227-0.076,0.412-0.181,0.559-0.315c0.146-0.134,0.255-0.293,0.327-0.477
		c0.071-0.184,0.107-0.386,0.107-0.606c0-0.44-0.145-0.778-0.435-1.014c-0.29-0.236-0.733-0.354-1.329-0.354h-1.032V15.839z"/>
	<path fill="#FFFFFF" d="M49.398,16.049c0,0.636-0.106,1.225-0.318,1.767s-0.51,1.011-0.894,1.407
		c-0.385,0.396-0.847,0.705-1.387,0.927c-0.54,0.222-1.138,0.333-1.794,0.333c-0.655,0-1.255-0.111-1.797-0.333
		c-0.542-0.222-1.006-0.531-1.392-0.927c-0.387-0.396-0.686-0.865-0.897-1.407s-0.317-1.131-0.317-1.767
		c0-0.636,0.105-1.225,0.317-1.767s0.511-1.011,0.897-1.407c0.386-0.396,0.85-0.705,1.392-0.927s1.142-0.333,1.797-0.333
		c0.656,0,1.254,0.112,1.794,0.336s1.002,0.533,1.387,0.927c0.384,0.394,0.682,0.862,0.894,1.404S49.398,15.413,49.398,16.049z
		 M47.742,16.049c0-0.476-0.063-0.903-0.189-1.281s-0.307-0.699-0.543-0.963c-0.235-0.264-0.522-0.466-0.86-0.606
		s-0.72-0.21-1.144-0.21s-0.806,0.07-1.146,0.21s-0.629,0.342-0.867,0.606s-0.421,0.585-0.549,0.963s-0.192,0.805-0.192,1.281
		s0.064,0.903,0.192,1.281s0.311,0.698,0.549,0.96c0.238,0.262,0.527,0.463,0.867,0.603c0.34,0.14,0.722,0.21,1.146,0.21
		s0.806-0.07,1.144-0.21c0.338-0.14,0.625-0.341,0.86-0.603c0.236-0.262,0.417-0.582,0.543-0.96S47.742,16.525,47.742,16.049z"/>
	<path fill="#FFFFFF" d="M56.634,18.341c0.088,0,0.164,0.034,0.229,0.102l0.636,0.69c-0.353,0.436-0.785,0.77-1.299,1.002
		c-0.515,0.232-1.131,0.348-1.852,0.348c-0.644,0-1.223-0.11-1.736-0.33c-0.515-0.22-0.953-0.526-1.317-0.918
		s-0.643-0.86-0.837-1.404s-0.291-1.138-0.291-1.782c0-0.652,0.108-1.249,0.324-1.791s0.52-1.009,0.912-1.401
		c0.392-0.392,0.86-0.697,1.406-0.915c0.546-0.218,1.149-0.327,1.81-0.327c0.644,0,1.207,0.103,1.688,0.309
		c0.482,0.206,0.896,0.479,1.239,0.819l-0.54,0.75c-0.032,0.048-0.073,0.09-0.123,0.126s-0.119,0.054-0.207,0.054
		c-0.092,0-0.186-0.036-0.282-0.108c-0.096-0.072-0.218-0.15-0.365-0.234c-0.148-0.084-0.335-0.162-0.562-0.234
		c-0.226-0.072-0.513-0.108-0.861-0.108c-0.407,0-0.782,0.071-1.125,0.213c-0.342,0.142-0.636,0.345-0.882,0.609
		c-0.246,0.264-0.438,0.585-0.576,0.963c-0.138,0.378-0.206,0.803-0.206,1.275c0,0.488,0.068,0.922,0.206,1.302
		c0.139,0.38,0.325,0.7,0.562,0.96c0.236,0.26,0.514,0.459,0.834,0.597s0.664,0.207,1.032,0.207c0.22,0,0.419-0.012,0.597-0.036
		s0.342-0.062,0.492-0.114c0.149-0.052,0.292-0.119,0.426-0.201s0.268-0.183,0.399-0.303c0.04-0.036,0.082-0.065,0.126-0.087
		S56.582,18.341,56.634,18.341z"/>
	<path fill="#FFFFFF" d="M60.384,15.347h0.378c0.152,0,0.278-0.021,0.378-0.063c0.101-0.042,0.187-0.109,0.258-0.201l2.395-3.03
		c0.1-0.128,0.205-0.217,0.314-0.267c0.11-0.05,0.249-0.075,0.417-0.075h1.393l-2.922,3.606c-0.093,0.112-0.181,0.206-0.265,0.282
		c-0.084,0.076-0.174,0.138-0.27,0.186c0.132,0.048,0.251,0.116,0.356,0.204c0.106,0.088,0.209,0.2,0.31,0.336l3.012,4.062H64.71
		c-0.192,0-0.335-0.027-0.429-0.081c-0.095-0.054-0.174-0.133-0.237-0.237l-2.454-3.204c-0.08-0.104-0.17-0.179-0.27-0.225
		c-0.101-0.046-0.242-0.069-0.427-0.069h-0.51v3.816H58.77v-8.682h1.614V15.347z"/>
	<path fill="#FFFFFF" d="M75.432,11.789v0.978h-2.778v7.62h-1.164v-7.62h-2.79v-0.978H75.432z"/>
	<path fill="#FFFFFF" d="M82.938,20.387h-0.9c-0.104,0-0.188-0.026-0.252-0.078c-0.063-0.052-0.112-0.118-0.144-0.198l-0.805-2.076
		h-3.857l-0.804,2.076c-0.028,0.072-0.076,0.136-0.145,0.192s-0.152,0.084-0.252,0.084h-0.9l3.438-8.598h1.182L82.938,20.387z
		 M77.304,17.195h3.21l-1.351-3.498c-0.088-0.216-0.174-0.486-0.258-0.81c-0.044,0.164-0.087,0.315-0.129,0.453
		c-0.042,0.138-0.083,0.259-0.123,0.363L77.304,17.195z"/>
	<path fill="#FFFFFF" d="M85.188,19.409h3.72v0.978h-4.884v-8.598h1.164V19.409z"/>
	<path fill="#FFFFFF" d="M91.47,15.557h0.438c0.152,0,0.273-0.019,0.363-0.057c0.09-0.038,0.175-0.103,0.255-0.195l2.862-3.24
		c0.088-0.1,0.173-0.171,0.255-0.213s0.187-0.063,0.314-0.063h0.99l-3.275,3.702c-0.084,0.092-0.163,0.17-0.237,0.234
		s-0.153,0.116-0.237,0.156c0.112,0.036,0.21,0.09,0.294,0.162c0.084,0.072,0.172,0.162,0.265,0.27l3.42,4.074h-1.009
		c-0.075,0-0.14-0.006-0.191-0.018c-0.052-0.012-0.097-0.028-0.135-0.048s-0.073-0.046-0.105-0.078
		c-0.032-0.032-0.063-0.066-0.096-0.102l-2.97-3.414c-0.045-0.048-0.086-0.089-0.123-0.123c-0.038-0.034-0.082-0.063-0.133-0.087
		c-0.05-0.024-0.107-0.041-0.174-0.051c-0.065-0.01-0.146-0.015-0.243-0.015H91.47v3.936h-1.158v-8.598h1.158V15.557z"/>
</g>
</svg>
